<?xml version="1.0" standalone="no"?><!DOCTYPE svg PUBLIC "-//W3C//DTD SVG 1.1//EN" "http://www.w3.org/Graphics/SVG/1.1/DTD/svg11.dtd"><svg t="1615969346097" class="icon" viewBox="0 0 1024 1024" version="1.1" xmlns="http://www.w3.org/2000/svg" p-id="4508" xmlns:xlink="http://www.w3.org/1999/xlink" width="200" height="200"><defs><style type="text/css"></style></defs><path d="M848.92 113c35.39 0 64.08 28.726 64.08 64.16v671.68c0 35.434-28.69 64.16-64.08 64.16H177.08c-35.39 0-64.08-28.726-64.08-64.16V177.16c0-35.434 28.69-64.16 64.08-64.16h671.84z m0 64.16H177.08v671.68h671.84V177.16zM293 666a44.005 44.005 0 0 1 44 44.002C337 734.3 317.3 754 293 754s-44-19.7-44-43.998C249 685.7 268.7 666 293 666z m452 12c17.673 0 32 14.327 32 32 0 17.673-14.327 32-32 32H429c-17.673 0-32-14.327-32-32 0-17.673 14.327-32 32-32h316zM293 468a44.002 44.002 0 0 1 44 44c0 24.3-19.7 44-44 44s-44-19.7-44-44 19.7-44 44-44z m452 12c17.673 0 32 14.327 32 32 0 17.673-14.327 32-32 32H429c-17.673 0-32-14.327-32-32 0-17.673 14.327-32 32-32h316zM293 270a44.005 44.005 0 0 1 44 44.002C337 338.3 317.3 358 293 358s-44-19.701-44-43.998c0-24.3 19.7-44.002 44-44.002z m452 12c17.673 0 32 14.327 32 32 0 17.673-14.327 32-32 32H429c-17.673 0-32-14.327-32-32 0-17.673 14.327-32 32-32h316z" p-id="4509" fill="#1296db"></path></svg>