<?xml version="1.0" standalone="no"?><!DOCTYPE svg PUBLIC "-//W3C//DTD SVG 1.1//EN" "http://www.w3.org/Graphics/SVG/1.1/DTD/svg11.dtd"><svg t="1615886609727" class="icon" viewBox="0 0 1028 1024" version="1.1" xmlns="http://www.w3.org/2000/svg" p-id="3099" xmlns:xlink="http://www.w3.org/1999/xlink" width="200.78125" height="200"><defs><style type="text/css"></style></defs><path d="M889.131049 4.990151h-19.106434L868.106479 3.072015l-1.918137 1.918136H139.859102c-74.372734 0-134.868951 60.496217-134.868951 134.868951v749.271947c0 74.372734 60.496217 134.868951 134.868951 134.868951h749.271947c74.372734 0 134.868951-60.496217 134.868951-134.868951v-749.271947c0-74.372734-60.496217-134.868951-134.868951-134.868951z m104.898073 134.868951v5.199947L603.433656 535.63953c-9.500768 9.515754-29.446388 19.885677-42.693516 22.193435l-33.522427 5.889278-65.006834-62.489281 6.248928-35.650359c2.322743-13.247128 12.707652-33.207733 22.208421-42.708501L878.596286 34.961029h10.534763c57.843794 0 104.898073 47.069264 104.898073 104.898073z m-104.898073 854.17002h-749.271947c-57.828809 0-104.898073-47.069264-104.898073-104.898073v-749.271947c0-57.828809 47.069264-104.898073 104.898073-104.898073h696.358362L469.493802 401.684691c-13.756633 13.756633-27.168601 39.546573-30.55531 58.727935l-18.147366 103.4295c-2.20286 12.61774 1.123908 24.471222 9.171088 32.518403 6.428753 6.413768 15.270162 9.830448 24.965742 9.830448 2.472597 0 5.005137-0.224782 7.552661-0.65936l103.414514-18.162352c19.181362-3.371724 44.986288-16.768706 58.727935-30.540324l369.391071-369.391071v701.693179c0.014985 57.843794-47.039293 104.898073-104.883088 104.898073z" p-id="3100" fill="#1296db"></path></svg>