<?xml version="1.0" standalone="no"?><!DOCTYPE svg PUBLIC "-//W3C//DTD SVG 1.1//EN" "http://www.w3.org/Graphics/SVG/1.1/DTD/svg11.dtd"><svg t="1615886462247" class="icon" viewBox="0 0 1024 1024" version="1.1" xmlns="http://www.w3.org/2000/svg" p-id="2856" xmlns:xlink="http://www.w3.org/1999/xlink" width="200" height="200"><defs><style type="text/css"></style></defs><path d="M444.0576 143.2576H180.1216c-22.5792 0-40.96 18.3808-40.96 40.96v263.936c0 22.5792 18.3808 40.96 40.96 40.96h263.936c22.5792 0 40.96-18.3808 40.96-40.96V184.2176c0-22.5792-18.3808-40.96-40.96-40.96zM836.7616 143.2576h-263.936c-22.5792 0-40.96 18.3808-40.96 40.96v263.936c0 22.5792 18.3808 40.96 40.96 40.96h263.936c22.5792 0 40.96-18.3808 40.96-40.96V184.2176c0-22.5792-18.3808-40.96-40.96-40.96zM444.0576 536.2176H180.1216c-22.5792 0-40.96 18.3808-40.96 40.96v263.936c0 22.5792 18.3808 40.96 40.96 40.96h263.936c22.5792 0 40.96-18.3808 40.96-40.96v-263.936c0-22.5792-18.3808-40.96-40.96-40.96zM836.7616 536.2176h-263.936c-22.5792 0-40.96 18.3808-40.96 40.96v263.936c0 22.5792 18.3808 40.96 40.96 40.96h263.936c22.5792 0 40.96-18.3808 40.96-40.96v-263.936c0-22.5792-18.3808-40.96-40.96-40.96z" fill="#1296db" p-id="2857"></path></svg>