<?xml version="1.0" standalone="no"?><!DOCTYPE svg PUBLIC "-//W3C//DTD SVG 1.1//EN" "http://www.w3.org/Graphics/SVG/1.1/DTD/svg11.dtd"><svg t="1615697670866" class="icon" viewBox="0 0 1024 1024" version="1.1" xmlns="http://www.w3.org/2000/svg" p-id="10665" xmlns:xlink="http://www.w3.org/1999/xlink" width="200" height="200"><defs><style type="text/css"></style></defs><path d="M223.929742 312.86184m47.984945 0l287.909668 0q47.984945 0 47.984945 47.984944l0 0q0 47.984945-47.984945 47.984945l-287.909668 0q-47.984945 0-47.984945-47.984945l0 0q0-47.984945 47.984945-47.984944Z" p-id="10666" fill="#1296db"></path><path d="M223.929742 536.791582m47.984945 0l159.949816 0q47.984945 0 47.984944 47.984944l0 0q0 47.984945-47.984944 47.984945l-159.949816 0q-47.984945 0-47.984945-47.984945l0 0q0-47.984945 47.984945-47.984944Z" p-id="10667" fill="#1296db"></path><path d="M1023.678821 127.959853v81.254506a46.705346 46.705346 0 0 1-93.410693 0v-51.82374a63.979926 63.979926 0 0 0-63.979926-63.979927H157.390619a63.979926 63.979926 0 0 0-63.979927 63.979927v709.537382a63.979926 63.979926 0 0 0 63.979927 63.979927h115.803666a46.705346 46.705346 0 1 1 0 92.770893H127.959853a127.959853 127.959853 0 0 1-127.959853-127.959853V127.959853a127.959853 127.959853 0 0 1 127.959853-127.959853h767.759115a127.959853 127.959853 0 0 1 127.959853 127.959853z" p-id="10668" fill="#1296db"></path><path d="M993.226142 595.306421m-41.556181-23.992472l-193.928845-111.964871q-41.556181-23.992472-17.563709-65.548654l0 0q23.992472-41.556181 65.548654-17.563708l193.928845 111.964871q41.556181 23.992472 17.563709 65.548653l0 0q-23.992472 41.556181-65.548654 17.563709Z" p-id="10669" fill="#1296db"></path><path d="M676.90762 726.300123l159.949816-277.033081 83.109924 47.984945-159.949816 277.033081z" p-id="10670" fill="#1296db"></path><path d="M490.086235 850.93302l59.501332 152.272224a31.350164 31.350164 0 0 0 34.54916 19.833778l161.869214-24.312372a31.350164 31.350164 0 0 0 23.032773-15.994982l72.297317-124.760856a32.629762 32.629762 0 0 0-11.516387-44.146149l-222.010344-127.959853a32.629762 32.629762 0 0 0-43.50635 12.156186l-72.297317 124.760856a31.350164 31.350164 0 0 0-1.919398 28.151168z" p-id="10671" fill="#1296db"></path></svg>