<?xml version="1.0" standalone="no"?><!DOCTYPE svg PUBLIC "-//W3C//DTD SVG 1.1//EN" "http://www.w3.org/Graphics/SVG/1.1/DTD/svg11.dtd"><svg t="1615653991513" class="icon" viewBox="0 0 1024 1024" version="1.1" xmlns="http://www.w3.org/2000/svg" p-id="7460" xmlns:xlink="http://www.w3.org/1999/xlink" width="200" height="200"><defs><style type="text/css"></style></defs><path d="M604 424h-184a8 8 0 0 1-8-8V96a8 8 0 0 1 8-8h184a8 8 0 0 1 8 8v320a8 8 0 0 1-8 8z m-176-16h168v-304h-168v304zM972 424h-184a8 8 0 0 1-8-8V96a8 8 0 0 1 8-8h184a8 8 0 0 1 8 8v320a8 8 0 0 1-8 8z m-176-16h168v-304h-168v304z" fill="#1296db" p-id="7461"></path><path d="M972 296h-184a8 8 0 0 1-8-8V96a8 8 0 0 1 8-8h184a8 8 0 0 1 8 8v192a8 8 0 0 1-8 8z m-176-16h168v-176h-168v176zM236 296H52a8 8 0 0 1-8-8v-64a8 8 0 0 1 8-8h184a8 8 0 0 1 8 8v64a8 8 0 0 1-8 8z m-176-16h168v-48H60v48zM236 424H52a8 8 0 0 1-8-8v-64a8 8 0 0 1 8-8h184a8 8 0 0 1 8 8v64a8 8 0 0 1-8 8z m-176-16h168v-48H60v48zM236 168H52a8 8 0 0 1-8-8V96a8 8 0 0 1 8-8h184a8 8 0 0 1 8 8v64a8 8 0 0 1-8 8z m-176-16h168v-48H60v48z" fill="#1296db" p-id="7462"></path><path d="M972 296a8 8 0 0 1-5.776-2.464l-184-192a8 8 0 1 1 11.552-11.072l184 192a8 8 0 0 1-5.776 13.536z" fill="#1296db" p-id="7463"></path><path d="M788 296a8 8 0 0 1-5.776-13.536l184-192a8 8 0 1 1 11.552 11.072l-184 192a8 8 0 0 1-5.776 2.464zM604 936h-184a8 8 0 0 1-8-8V608a8 8 0 0 1 8-8h184a8 8 0 0 1 8 8v320a8 8 0 0 1-8 8z m-176-16h168v-304h-168v304z" fill="#1296db" p-id="7464"></path><path d="M420 664h184v208h-184z" fill="#1296db" p-id="7465"></path><path d="M604 880h-184a8 8 0 0 1-8-8v-208a8 8 0 0 1 8-8h184a8 8 0 0 1 8 8v208a8 8 0 0 1-8 8z m-176-16h168V672h-168v192z" fill="#1296db" p-id="7466"></path><path d="M52 608h184v320H52z" fill="#1296db" p-id="7467"></path><path d="M236 936H52a8 8 0 0 1-8-8V608a8 8 0 0 1 8-8h184a8 8 0 0 1 8 8v320a8 8 0 0 1-8 8z m-176-16h168v-304H60v304z" fill="#1296db" p-id="7468"></path><path d="M788 608h184v320h-184z" fill="#1296db" p-id="7469"></path><path d="M972 936h-184a8 8 0 0 1-8-8V608a8 8 0 0 1 8-8h184a8 8 0 0 1 8 8v320a8 8 0 0 1-8 8z m-176-16h168v-304h-168v304zM388 264h-120a8 8 0 0 1 0-16h120a8 8 0 0 1 0 16z" fill="#1296db" p-id="7470"></path><path d="M340 312a8 8 0 0 1-5.664-13.648L376.688 256l-42.336-42.336a8 8 0 0 1 11.312-11.312l48 48a8 8 0 0 1 0 11.312l-48 48a8.032 8.032 0 0 1-5.664 2.336zM756 264h-120a8 8 0 0 1 0-16h120a8 8 0 0 1 0 16z" fill="#1296db" p-id="7471"></path><path d="M708 312a8 8 0 0 1-5.664-13.648L744.688 256l-42.336-42.336a8 8 0 0 1 11.312-11.312l48 48a8 8 0 0 1 0 11.312l-48 48a8.032 8.032 0 0 1-5.664 2.336zM388 776h-120a8 8 0 0 1 0-16h120a8 8 0 0 1 0 16z" fill="#1296db" p-id="7472"></path><path d="M340 824a8 8 0 0 1-5.664-13.648L376.688 768l-42.336-42.336a8 8 0 0 1 11.312-11.312l48 48a8 8 0 0 1 0 11.312l-48 48a8.032 8.032 0 0 1-5.664 2.336zM756 776h-120a8 8 0 0 1 0-16h120a8 8 0 0 1 0 16z" fill="#1296db" p-id="7473"></path><path d="M708 824a8 8 0 0 1-5.664-13.648L744.688 768l-42.336-42.336a8 8 0 0 1 11.312-11.312l48 48a8 8 0 0 1 0 11.312l-48 48a8.032 8.032 0 0 1-5.664 2.336zM560 168h-96a8 8 0 0 1 0-16h96a8 8 0 0 1 0 16zM560 296h-96a8 8 0 0 1 0-16h96a8 8 0 0 1 0 16zM560 232h-96a8 8 0 0 1 0-16h96a8 8 0 0 1 0 16zM560 360h-96a8 8 0 0 1 0-16h96a8 8 0 0 1 0 16zM928 360h-96a8 8 0 0 1 0-16h96a8 8 0 0 1 0 16z" fill="#1296db" p-id="7474"></path><path d="M880 704l19.776 42.128 44.224 6.768-32 32.8 7.552 46.304L880 810.128 840.448 832 848 785.696l-32-32.8 44.224-6.768z" fill="#1296db" p-id="7475"></path><path d="M919.552 840a8.112 8.112 0 0 1-3.872-0.992L880 819.28l-35.68 19.728c-2.672 1.488-5.984 1.312-8.48-0.464s-3.776-4.8-3.296-7.824l6.912-42.336-29.184-29.904a7.984 7.984 0 0 1 4.512-13.488l40-6.112 17.968-38.272c2.64-5.616 11.84-5.616 14.48 0l17.968 38.272 40 6.112a7.984 7.984 0 0 1 4.512 13.488l-29.184 29.904 6.912 42.336a7.968 7.968 0 0 1-7.888 9.28zM880 802.128c1.328 0 2.672 0.336 3.872 0.992l25.136 13.904-4.912-30.048a8.032 8.032 0 0 1 2.176-6.88l21.12-21.664-28.832-4.4a8 8 0 0 1-6.032-4.512L880 722.832l-12.528 26.704a8 8 0 0 1-6.032 4.512l-28.832 4.4 21.12 21.664a8.032 8.032 0 0 1 2.176 6.88l-4.912 30.048 25.136-13.904a7.952 7.952 0 0 1 3.872-1.008z" fill="#1296db" p-id="7476"></path><path d="M144 728m-48 0a48 48 0 1 0 96 0 48 48 0 1 0-96 0Z" fill="#1296db" p-id="7477"></path><path d="M144 784c-30.88 0-56-25.12-56-56S113.12 672 144 672s56 25.12 56 56S174.88 784 144 784z m0-96c-22.048 0-40 17.952-40 40S121.952 768 144 768s40-17.952 40-40S166.048 688 144 688z" fill="#1296db" p-id="7478"></path><path d="M96 813.872h96v40H96z" fill="#1296db" p-id="7479"></path><path d="M192 861.872H96a8 8 0 0 1-8-8v-40a8 8 0 0 1 8-8h96a8 8 0 0 1 8 8v40a8 8 0 0 1-8 8z m-88-16h80v-24h-80v24z" fill="#1296db" p-id="7480"></path><path d="M468 816v-96l88 48z" fill="#1296db" p-id="7481"></path><path d="M468 824a8.032 8.032 0 0 1-8-8v-96a8 8 0 0 1 11.84-7.024l88 48a8 8 0 0 1-0.016 14.048l-88 48a8.048 8.048 0 0 1-3.824 0.976z m8-90.528v69.04L539.312 768l-63.312-34.528z" fill="#1296db" p-id="7482"></path><path d="M144 584a8 8 0 0 1-8-8v-64a8 8 0 0 1 8-8h728V448a8 8 0 0 1 16 0v64a8 8 0 0 1-8 8H152V576a8 8 0 0 1-8 8z" fill="#1296db" p-id="7483"></path><path d="M696 1000h-304a8 8 0 0 1 0-16h304a8 8 0 0 1 0 16z" fill="#1296db" p-id="7484"></path><path d="M360 1000h-32a8 8 0 0 1 0-16h32a8 8 0 0 1 0 16z" fill="#1296db" p-id="7485"></path><path d="M632 40h-304a8 8 0 0 1 0-16h304a8 8 0 0 1 0 16z" fill="#1296db" p-id="7486"></path><path d="M696 40h-32a8 8 0 0 1 0-16h32a8 8 0 0 1 0 16z" fill="#1296db" p-id="7487"></path></svg>